<svg width="16" height="17" viewBox="0 0 16 17" fill="none" xmlns="http://www.w3.org/2000/svg">
<mask id="mask0_1415_30" style="mask-type:luminance" maskUnits="userSpaceOnUse" x="0" y="0" width="17" height="17">
<rect x="0.00012207" y="0.500488" width="16" height="16" fill="white"/>
</mask>
<g mask="url(#mask0_1415_30)">
<path fill-rule="evenodd" clip-rule="evenodd" d="M16.0001 8.50049C16.0001 8.50049 13.0001 3.00049 8.00012 3.00049C3.00012 3.00049 0.00012207 8.50049 0.00012207 8.50049C0.00012207 8.50049 3.00012 14.0005 8.00012 14.0005C13.0001 14.0005 16.0001 8.50049 16.0001 8.50049ZM1.17313 8.50049C1.65665 9.23536 2.21277 9.9198 2.83313 10.5435C4.12013 11.8325 5.88013 13.0005 8.00013 13.0005C10.1201 13.0005 11.8791 11.8325 13.1681 10.5435C13.7885 9.9198 14.3446 9.23536 14.8281 8.50049C14.3446 7.76561 13.7885 7.08117 13.1681 6.45748C11.8791 5.16849 10.1191 4.00049 8.00013 4.00049C5.88013 4.00049 4.12113 5.16849 2.83213 6.45749C2.21177 7.08118 1.65564 7.76562 1.17212 8.5005L1.17313 8.50049Z" fill="#BEBEBE"/>
<path fill-rule="evenodd" clip-rule="evenodd" d="M8.00012 6.00049C6.61941 6.00049 5.50013 7.11977 5.50012 8.50048C5.50012 9.88119 6.6194 11.0005 8.00011 11.0005C9.38082 11.0005 10.5001 9.88121 10.5001 8.5005C10.5001 7.11979 9.38084 6.0005 8.00013 6.00049H8.00012ZM4.50012 8.50049C4.50012 7.25006 5.16722 6.09462 6.25012 5.4694C7.33302 4.84419 8.66722 4.84418 9.75012 5.4694C10.833 6.09461 11.5001 7.25006 11.5001 8.50049C11.5001 9.75092 10.833 10.9064 9.75012 11.5316C8.66722 12.1568 7.33303 12.1568 6.25012 11.5316C5.16722 10.9064 4.50012 9.75092 4.50012 8.50049V8.50049Z" fill="#BEBEBE"/>
</g>
</svg>
